<svg xmlns="http://www.w3.org/2000/svg" xmlns:xlink="http://www.w3.org/1999/xlink" version="1.1" x="0px" y="0px" viewBox="0 0 100 125" enable-background="new 0 0 100 100" xml:space="preserve"><g><path fill="#FF9933" fill-rule="evenodd" clip-rule="evenodd" d="M75.353,15.644C68.864,9.155,59.9,5.142,50,5.142   c-9.901,0-18.865,4.013-25.353,10.501c-6.486,6.487-10.498,15.45-10.498,25.353h-0.003c0,4.672,0.98,9.055,2.658,13.104   c1.872,4.521,4.608,8.611,7.811,12.213l24.742,27.82L50,94.857l0.645-0.725l24.741-27.82c3.202-3.602,5.939-7.693,7.812-12.213   c1.676-4.049,2.657-8.432,2.657-13.103C85.854,31.096,81.841,22.132,75.353,15.644z M81.604,53.443   c-1.79,4.322-4.421,8.252-7.507,11.723L50,92.262L25.902,65.166c-3.086-3.471-5.717-7.398-7.507-11.721   c-1.592-3.843-2.523-8.007-2.523-12.449h-0.003c0-9.421,3.821-17.954,9.999-24.131C32.044,10.688,40.576,6.869,50,6.869   c9.424,0,17.956,3.82,24.132,9.996s9.995,14.708,9.995,24.132C84.127,45.438,83.196,49.602,81.604,53.443z"/><path fill="#FF9933" fill-rule="evenodd" clip-rule="evenodd" d="M66.94,33.399h-1.468H55.337l-5.172-9.258l-0.753-1.346l-0.752,1.346   l-5.173,9.258H33.353h-1.468l0.716,1.282l5.085,9.101l-5.085,9.101l-0.716,1.281h1.468h10.135l5.173,9.26l0.752,1.346l0.753-1.346   l5.172-9.26h10.136h1.468l-0.716-1.281l-5.086-9.101l5.086-9.101L66.94,33.399z M49.412,26.324l3.953,7.076h-3.953h-3.953   L49.412,26.324z M54.33,35.126l2.359,4.222l2.479,4.434l-2.479,4.433l-2.359,4.222h-4.918h-4.918l-2.36-4.222l-2.477-4.433   l2.477-4.434l2.36-4.222h4.918H54.33z M34.821,35.126h7.702l-1.892,3.386l-1.959,3.506L34.821,35.126z M34.821,52.438l3.851-6.892   l1.959,3.506l1.892,3.386H34.821z M49.412,61.24l-3.953-7.076h3.953h3.953L49.412,61.24z M64.004,52.438h-7.701l1.891-3.386   l1.96-3.506L64.004,52.438z M60.153,42.018l-1.96-3.506l-1.891-3.386h7.701L60.153,42.018z"/></g></svg>