<svg xmlns="http://www.w3.org/2000/svg" xmlns:xlink="http://www.w3.org/1999/xlink" version="1.1" x="0px" y="0px" viewBox="0 0 60 75" enable-background="new 0 0 60 60" xml:space="preserve"><g><path fill="#4B14CC" d="M60,11V5h-3.15C56.94,4.67,57,4.34,57,4c0-2.21-1.79-4-4-4s-4,1.79-4,4c0,0.34,0.06,0.67,0.15,1H45v6h2v1H10v-1h2V5H9.85   C9.94,4.67,10,4.34,10,4c0-2.21-1.79-4-4-4S2,1.79,2,4c0,0.34,0.06,0.67,0.15,1H0v6h2v38H0v6h2.15C2.06,55.33,2,55.66,2,56   c0,2.21,1.79,4,4,4s4-1.79,4-4c0-0.34-0.06-0.67-0.15-1H12v-6h-2v-1h37v1h-2v6h4.15C49.06,55.33,49,55.66,49,56c0,2.21,1.79,4,4,4   s4-1.79,4-4c0-0.34-0.06-0.67-0.15-1H60v-6h-2V11H60z M51,4c0-1.1,0.9-2,2-2s2,0.9,2,2c0,0.41-0.12,0.74-0.28,1h-3.45   C51.12,4.74,51,4.41,51,4z M47,7h3.33h5.33H58v2H47V7z M4,4c0-1.1,0.9-2,2-2s2,0.9,2,2c0,0.41-0.12,0.74-0.28,1H4.28   C4.12,4.74,4,4.41,4,4z M2,7h1.33h5.33H10v2H2V7z M8,56c0,1.1-0.9,2-2,2s-2-0.9-2-2c0-0.41,0.12-0.74,0.28-1h3.45   C7.88,55.26,8,55.59,8,56z M10,53H8.67H3.33H2v-2h8V53z M8,49H4V11h4v1v36V49z M10,46V14h37v32H10z M55,56c0,1.1-0.9,2-2,2   s-2-0.9-2-2c0-0.41,0.12-0.74,0.28-1h3.45C54.88,55.26,55,55.59,55,56z M58,53h-2.33h-5.33H47v-2h11V53z M56,49h-7v-1V12v-1h7V49z"/><path fill="#4B14CC" d="M13,21h3c0.55,0,1-0.45,1-1s-0.45-1-1-1h-3c-0.55,0-1,0.45-1,1S12.45,21,13,21z"/><path fill="#4B14CC" d="M25,19h-3c-0.55,0-1,0.45-1,1s0.45,1,1,1h3c0.55,0,1-0.45,1-1S25.55,19,25,19z"/><path fill="#4B14CC" d="M19,21c0.26,0,0.52-0.11,0.71-0.29C19.89,20.52,20,20.27,20,20s-0.11-0.52-0.29-0.71c-0.38-0.37-1.05-0.37-1.42,0   C18.11,19.48,18,19.74,18,20c0,0.26,0.11,0.52,0.29,0.71C18.48,20.89,18.74,21,19,21z"/><path fill="#4B14CC" d="M13,31c0.26,0,0.52-0.11,0.71-0.29C13.89,30.52,14,30.27,14,30c0-0.26-0.11-0.52-0.29-0.71c-0.38-0.37-1.05-0.37-1.42,0   C12.11,29.48,12,29.73,12,30s0.11,0.52,0.29,0.71C12.48,30.89,12.74,31,13,31z"/><path fill="#4B14CC" d="M25,24h-9c-0.55,0-1,0.45-1,1s0.45,1,1,1h9c0.55,0,1-0.45,1-1S25.55,24,25,24z"/><path fill="#4B14CC" d="M22,31c0.55,0,1-0.45,1-1s-0.45-1-1-1h-6c-0.55,0-1,0.45-1,1s0.45,1,1,1H22z"/><path fill="#4B14CC" d="M13,26c0.26,0,0.52-0.11,0.71-0.29C13.89,25.52,14,25.26,14,25c0-0.26-0.11-0.52-0.29-0.71c-0.38-0.37-1.05-0.36-1.42,0   C12.11,24.48,12,24.73,12,25c0,0.26,0.11,0.52,0.29,0.71C12.48,25.89,12.74,26,13,26z"/><path fill="#4B14CC" d="M24.29,29.29C24.11,29.48,24,29.74,24,30c0,0.26,0.11,0.52,0.29,0.71C24.48,30.89,24.74,31,25,31   c0.26,0,0.52-0.11,0.71-0.29C25.89,30.52,26,30.26,26,30c0-0.26-0.11-0.52-0.29-0.71C25.34,28.92,24.67,28.92,24.29,29.29z"/><path fill="#4B14CC" d="M25,34H13c-0.55,0-1,0.45-1,1s0.45,1,1,1h12c0.55,0,1-0.45,1-1S25.55,34,25,34z"/><path fill="#4B14CC" d="M16,39h-3c-0.55,0-1,0.45-1,1s0.45,1,1,1h3c0.55,0,1-0.45,1-1S16.55,39,16,39z"/><path fill="#4B14CC" d="M25,39h-6c-0.55,0-1,0.45-1,1s0.45,1,1,1h6c0.55,0,1-0.45,1-1S25.55,39,25,39z"/><path fill="#4B14CC" d="M32,21h3c0.55,0,1-0.45,1-1s-0.45-1-1-1h-3c-0.55,0-1,0.45-1,1S31.45,21,32,21z"/><path fill="#4B14CC" d="M44,19h-3c-0.55,0-1,0.45-1,1s0.45,1,1,1h3c0.55,0,1-0.45,1-1S44.55,19,44,19z"/><path fill="#4B14CC" d="M38,21c0.26,0,0.52-0.11,0.71-0.29C38.89,20.52,39,20.26,39,20c0-0.26-0.11-0.52-0.29-0.71c-0.37-0.37-1.05-0.37-1.42,0   C37.11,19.48,37,19.74,37,20c0,0.26,0.11,0.52,0.29,0.71C37.48,20.89,37.74,21,38,21z"/><path fill="#4B14CC" d="M32,31c0.26,0,0.52-0.11,0.71-0.29C32.89,30.52,33,30.26,33,30c0-0.26-0.11-0.52-0.29-0.71c-0.38-0.37-1.05-0.37-1.42,0   C31.11,29.48,31,29.74,31,30c0,0.26,0.11,0.52,0.29,0.71C31.48,30.89,31.74,31,32,31z"/><path fill="#4B14CC" d="M44,24h-9c-0.55,0-1,0.45-1,1s0.45,1,1,1h9c0.55,0,1-0.45,1-1S44.55,24,44,24z"/><path fill="#4B14CC" d="M41,31c0.55,0,1-0.45,1-1s-0.45-1-1-1h-6c-0.55,0-1,0.45-1,1s0.45,1,1,1H41z"/><path fill="#4B14CC" d="M32,26c0.26,0,0.52-0.11,0.71-0.29C32.89,25.52,33,25.26,33,25c0-0.26-0.11-0.52-0.29-0.71c-0.37-0.37-1.05-0.37-1.42,0   C31.11,24.48,31,24.74,31,25c0,0.26,0.11,0.52,0.29,0.71C31.48,25.89,31.74,26,32,26z"/><path fill="#4B14CC" d="M43.29,29.29C43.11,29.48,43,29.74,43,30c0,0.26,0.11,0.52,0.29,0.71C43.48,30.89,43.74,31,44,31   c0.26,0,0.52-0.11,0.71-0.29C44.89,30.52,45,30.26,45,30c0-0.26-0.11-0.52-0.29-0.71C44.34,28.92,43.66,28.92,43.29,29.29z"/><path fill="#4B14CC" d="M44,34H32c-0.55,0-1,0.45-1,1s0.45,1,1,1h12c0.55,0,1-0.45,1-1S44.55,34,44,34z"/><path fill="#4B14CC" d="M35,39h-3c-0.55,0-1,0.45-1,1s0.45,1,1,1h3c0.55,0,1-0.45,1-1S35.55,39,35,39z"/><path fill="#4B14CC" d="M44,39h-6c-0.55,0-1,0.45-1,1s0.45,1,1,1h6c0.55,0,1-0.45,1-1S44.55,39,44,39z"/></g></svg>