<svg xmlns="http://www.w3.org/2000/svg" xmlns:xlink="http://www.w3.org/1999/xlink" version="1.1" x="0px" y="0px" viewBox="0 0 100 125" enable-background="new 0 0 100 100" xml:space="preserve"><path fill="#FF9933" transform="scale(0.5)" d="M49.75,5C34.112,5,21.435,17.677,21.435,33.315c0,4.49,1.045,8.735,2.905,12.507l0.279,0.583L49.745,95  l24.913-48.184l0.14-0.286c2.086-3.945,3.267-8.443,3.267-13.216C78.065,17.677,65.388,5,49.75,5z M51.979,31.376 M51.979,35.42  l0,5.516h9.658v4.138H47.944v-4.138l0-5.516l-5.516,0v9.659H38.29V31.385l9.645-0.009l0-5.505h-9.642v-4.138h13.693v9.643  l5.505-0.001v-9.641h4.138v13.693L51.979,35.42z"/></svg>