<svg xmlns="http://www.w3.org/2000/svg" xmlns:xlink="http://www.w3.org/1999/xlink" version="1.1" x="0px" y="0px" viewBox="0 0 100 125" enable-background="new 0 0 100 100" xml:space="preserve"><g><path fill="#FF9933" d="M40.7,10.1c0,0,2.1,1.5,4,0.9c4.3-1.2,5.4,0.8,5.4,0.8l-0.3,0.6c0,0-1.5-1.5-5.1-0.5c-1.9,0.5-4-1-4-1L40.7,10.1z"/><path fill="#FF9933" d="M49.8,12.4L49.8,12.4c0,0-0.2-0.2-0.7-0.4c-0.4-0.2-1.1-0.4-2.1-0.4c-0.7,0-1.5,0.1-2.4,0.4C44.3,12,44.1,12,43.7,12   c-1.6,0-3.1-1.1-3.1-1.1l0,0l0,0l0.1-0.9l0,0c0,0,1.5,1.1,3.1,1.1c0.3,0,0.6,0,0.9-0.1c0.9-0.3,1.8-0.4,2.5-0.4   c0.6,0,1.6,0.1,2.3,0.6c0.4,0.3,0.6,0.6,0.6,0.6l0,0l0,0L49.8,12.4z M47,11.5c1,0,1.7,0.2,2.1,0.4c0.4,0.2,0.6,0.4,0.7,0.4l0.3-0.6   c0,0-0.2-0.3-0.6-0.6c-0.7-0.5-1.6-0.6-2.3-0.6c-0.7,0-1.6,0.1-2.5,0.4c-0.3,0.1-0.6,0.1-0.9,0.1c-1.5,0-3-1-3.1-1.1l-0.1,0.8   c0.1,0.1,1.6,1.1,3.1,1.1c0.3,0,0.6,0,0.9-0.1C45.5,11.6,46.3,11.5,47,11.5z"/></g><g><path fill="#FF9933" d="M40.5,13.5c0,0,2.1,1.5,4,0.9c4.3-1.2,5.1,0.5,5.1,0.5c0.2,0.6,0,0.9,0,0.9s-1.5-1.5-5.1-0.5c-1.9,0.5-4-1-4-1L40.5,13.5z"/><path fill="#FF9933" d="M49.6,15.8L49.6,15.8c0,0-0.2-0.2-0.7-0.4c-0.4-0.2-1.1-0.4-2.1-0.4c-0.7,0-1.5,0.1-2.4,0.4c-0.3,0.1-0.6,0.1-0.9,0.1   c-1.6,0-3.1-1.1-3.1-1.1l0,0l0,0l0.1-0.9l0,0c0,0,1.5,1.1,3.1,1.1c0.3,0,0.6,0,0.9-0.1c1-0.3,2-0.4,2.7-0.4c1.9,0,2.3,0.9,2.3,0.9   c0.1,0.3,0.1,0.5,0.1,0.7C49.7,15.7,49.6,15.8,49.6,15.8L49.6,15.8z M46.8,14.9c1,0,1.7,0.2,2.1,0.4c0.4,0.2,0.6,0.4,0.7,0.4   c0-0.1,0.2-0.4,0-0.9c0,0-0.4-0.9-2.3-0.9c-0.8,0-1.7,0.1-2.7,0.4c-0.3,0.1-0.6,0.1-0.9,0.1c-1.5,0-3-1-3.1-1.1l-0.1,0.8   c0.1,0.1,1.6,1.1,3.1,1.1c0.3,0,0.6,0,0.9-0.1C45.3,15.1,46.1,14.9,46.8,14.9z"/></g><g><path fill="#FF9933" d="M40.6,11.8c0,0,2.1,1.5,4,0.9c4.3-1.2,5.1,0.5,5.1,0.5c0.2,0.3,0,0.8,0,0.8s-1.5-1.5-5.1-0.5c-1.9,0.5-4-1-4-1L40.6,11.8z"/><path fill="#FF9933" d="M49.7,14.1L49.7,14.1c0,0-0.2-0.2-0.7-0.4c-0.4-0.2-1.1-0.4-2.1-0.4c-0.7,0-1.5,0.1-2.4,0.4c-0.3,0.1-0.6,0.1-0.9,0.1   c-1.6,0-3.1-1.1-3.1-1.1l0,0l0,0l0.1-0.9l0,0c0,0,1.5,1.1,3.1,1.1c0.3,0,0.6,0,0.9-0.1c1-0.3,1.9-0.4,2.7-0.4c1,0,1.6,0.3,1.9,0.5   c0.4,0.2,0.5,0.5,0.5,0.5c0.1,0.2,0.1,0.4,0,0.5C49.7,13.9,49.7,14.1,49.7,14.1L49.7,14.1z M46.9,13.2c1,0,1.7,0.2,2.1,0.4   c0.4,0.2,0.6,0.4,0.7,0.4c0-0.1,0.2-0.6,0-0.8c0,0-0.1-0.2-0.5-0.5c-0.3-0.2-0.9-0.5-1.9-0.5c-0.8,0-1.7,0.1-2.7,0.4   c-0.3,0.1-0.6,0.1-0.9,0.1c-1.5,0-3-1-3.1-1.1l-0.1,0.8c0.1,0.1,1.6,1.1,3.1,1.1c0.3,0,0.6,0,0.9-0.1   C45.4,13.3,46.2,13.2,46.9,13.2z"/></g><rect x="40.1" y="9.7" width="0.9" height="25.8"/><g><path fill="#FF9933" d="M12.2,26.3c0,0,2.1,1.5,4,0.9c4.3-1.2,5.4,0.8,5.4,0.8l-0.3,0.6c0,0-1.5-1.5-5.1-0.5c-1.9,0.5-4-1-4-1L12.2,26.3z"/><path fill="#FF9933" d="M21.3,28.6L21.3,28.6c0,0-0.2-0.2-0.7-0.4c-0.4-0.2-1.1-0.4-2.1-0.4c-0.7,0-1.5,0.1-2.4,0.4c-0.3,0.1-0.6,0.1-0.9,0.1   c-1.6,0-3.1-1.1-3.1-1.1l0,0l0,0l0.1-0.9l0,0c0,0,1.5,1.1,3.1,1.1c0.3,0,0.6,0,0.9-0.1c0.9-0.3,1.8-0.4,2.5-0.4   c0.6,0,1.6,0.1,2.3,0.6c0.4,0.3,0.6,0.6,0.6,0.6l0,0l0,0L21.3,28.6z M18.5,27.8c1,0,1.7,0.2,2.1,0.4c0.4,0.2,0.6,0.4,0.7,0.4   l0.3-0.6c0,0-0.2-0.3-0.6-0.6c-0.7-0.5-1.6-0.6-2.3-0.6c-0.7,0-1.6,0.1-2.5,0.4c-0.3,0.1-0.6,0.1-0.9,0.1c-1.5,0-3-1-3.1-1.1   l-0.1,0.8c0.1,0.1,1.6,1.1,3.1,1.1c0.3,0,0.6,0,0.9-0.1C17,27.9,17.8,27.8,18.5,27.8z"/></g><g><path fill="#FF9933" d="M12,29.7c0,0,2.1,1.5,4,0.9c4.3-1.2,5.1,0.5,5.1,0.5c0.2,0.6,0,0.9,0,0.9s-1.5-1.5-5.1-0.5c-1.9,0.5-4-1-4-1L12,29.7z"/><path fill="#FF9933" d="M21.1,32L21.1,32c0,0-0.2-0.2-0.7-0.4c-0.4-0.2-1.1-0.4-2.1-0.4c-0.7,0-1.5,0.1-2.4,0.4c-0.3,0.1-0.6,0.1-0.9,0.1   c-1.6,0-3.1-1.1-3.1-1.1l0,0l0,0l0.1-0.9l0,0c0,0,1.5,1.1,3.1,1.1c0.3,0,0.6,0,0.9-0.1c1-0.3,2-0.4,2.7-0.4c1.9,0,2.3,0.9,2.3,0.9   c0.1,0.3,0.1,0.5,0.1,0.7C21.2,32,21.1,32,21.1,32L21.1,32z M18.4,31.2c1,0,1.7,0.2,2.1,0.4c0.4,0.2,0.6,0.4,0.7,0.4   c0-0.1,0.2-0.4,0-0.9c0,0-0.4-0.9-2.3-0.9c-0.8,0-1.7,0.1-2.7,0.4c-0.3,0.1-0.6,0.1-0.9,0.1c-1.5,0-3-1-3.1-1.1L12,30.6   c0.1,0.1,1.6,1.1,3.1,1.1c0.3,0,0.6,0,0.9-0.1C16.8,31.3,17.6,31.2,18.4,31.2z"/></g><g><path fill="#FF9933" d="M12.1,28c0,0,2.1,1.5,4,0.9c4.3-1.2,5.1,0.5,5.1,0.5c0.2,0.3,0,0.8,0,0.8s-1.5-1.5-5.1-0.5c-1.9,0.5-4-1-4-1L12.1,28z"/><path fill="#FF9933" d="M21.2,30.3L21.2,30.3c0,0-0.2-0.2-0.7-0.4c-0.4-0.2-1.1-0.4-2.1-0.4c-0.7,0-1.5,0.1-2.4,0.4c-0.3,0.1-0.6,0.1-0.9,0.1   c-1.6,0-3.1-1.1-3.1-1.1l0,0l0,0l0.1-0.9l0,0c0,0,1.5,1.1,3.1,1.1c0.3,0,0.6,0,0.9-0.1c1-0.3,1.9-0.4,2.7-0.4c1,0,1.6,0.3,1.9,0.5   c0.4,0.2,0.5,0.5,0.5,0.5c0.1,0.2,0.1,0.4,0,0.5C21.2,30.2,21.2,30.3,21.2,30.3L21.2,30.3z M18.4,29.4c1,0,1.7,0.2,2.1,0.4   c0.4,0.2,0.6,0.4,0.7,0.4c0-0.1,0.2-0.6,0-0.8c0,0-0.1-0.2-0.5-0.5c-0.3-0.2-0.9-0.5-1.9-0.5c-0.8,0-1.7,0.1-2.7,0.4   c-0.3,0.1-0.6,0.1-0.9,0.1c-1.5,0-3-1-3.1-1.1L12,28.8c0.1,0.1,1.6,1.1,3.1,1.1c0.3,0,0.6,0,0.9-0.1C16.9,29.6,17.7,29.4,18.4,29.4   z"/></g><rect x="11.6" y="25.9" width="0.9" height="19.7"/><g><path fill="#FF9933" d="M71.5,26.3c0,0,2.1,1.5,4,0.9c4.3-1.2,5.4,0.8,5.4,0.8l-0.3,0.6c0,0-1.5-1.5-5.1-0.5c-1.9,0.5-4-1-4-1L71.5,26.3z"/><path fill="#FF9933" d="M80.6,28.6L80.6,28.6c0,0-0.2-0.2-0.7-0.4c-0.4-0.2-1.1-0.4-2.1-0.4c-0.7,0-1.5,0.1-2.4,0.4c-0.3,0.1-0.6,0.1-0.9,0.1   c-1.6,0-3.1-1.1-3.1-1.1l0,0l0,0l0.1-0.9l0,0c0,0,1.5,1.1,3.1,1.1c0.3,0,0.6,0,0.9-0.1c0.9-0.3,1.8-0.4,2.5-0.4   c0.6,0,1.6,0.1,2.3,0.6c0.4,0.3,0.6,0.6,0.6,0.6l0,0l0,0L80.6,28.6z M77.8,27.8c1,0,1.7,0.2,2.1,0.4c0.4,0.2,0.6,0.4,0.7,0.4   l0.3-0.6c0,0-0.2-0.3-0.6-0.6c-0.7-0.5-1.6-0.6-2.3-0.6c-0.7,0-1.6,0.1-2.5,0.4c-0.3,0.1-0.6,0.1-0.9,0.1c-1.5,0-3-1-3.1-1.1   l-0.1,0.8c0.1,0.1,1.6,1.1,3.1,1.1c0.3,0,0.6,0,0.9-0.1C76.3,27.9,77.1,27.8,77.8,27.8z"/></g><g><path fill="#FF9933" d="M71.3,29.7c0,0,2.1,1.5,4,0.9c4.3-1.2,5.1,0.5,5.1,0.5c0.2,0.6,0,0.9,0,0.9s-1.5-1.5-5.1-0.5c-1.9,0.5-4-1-4-1L71.3,29.7z"/><path fill="#FF9933" d="M80.4,32L80.4,32c0,0-0.2-0.2-0.7-0.4c-0.4-0.2-1.1-0.4-2.1-0.4c-0.7,0-1.5,0.1-2.4,0.4c-0.3,0.1-0.6,0.1-0.9,0.1   c-1.6,0-3.1-1.1-3.1-1.1l0,0l0,0l0.1-0.9l0,0c0,0,1.5,1.1,3.1,1.1c0.3,0,0.6,0,0.9-0.1c1-0.3,2-0.4,2.7-0.4c1.9,0,2.3,0.9,2.3,0.9   c0.1,0.3,0.1,0.5,0.1,0.7C80.5,32,80.4,32,80.4,32L80.4,32z M77.6,31.2c1,0,1.7,0.2,2.1,0.4c0.4,0.2,0.6,0.4,0.7,0.4   c0-0.1,0.2-0.4,0-0.9c0,0-0.4-0.9-2.3-0.9c-0.8,0-1.7,0.1-2.7,0.4c-0.3,0.1-0.6,0.1-0.9,0.1c-1.5,0-3-1-3.1-1.1l-0.1,0.8   c0.1,0.1,1.6,1.1,3.1,1.1c0.3,0,0.6,0,0.9-0.1C76.1,31.3,76.9,31.2,77.6,31.2z"/></g><g><path fill="#FF9933" d="M71.4,28c0,0,2.1,1.5,4,0.9c4.3-1.2,5.1,0.5,5.1,0.5c0.2,0.3,0,0.8,0,0.8s-1.5-1.5-5.1-0.5c-1.9,0.5-4-1-4-1L71.4,28z"/><path fill="#FF9933" d="M80.5,30.3L80.5,30.3c0,0-0.2-0.2-0.7-0.4c-0.4-0.2-1.1-0.4-2.1-0.4c-0.7,0-1.5,0.1-2.4,0.4c-0.3,0.1-0.6,0.1-0.9,0.1   c-1.6,0-3.1-1.1-3.1-1.1l0,0l0,0l0.1-0.9l0,0c0,0,1.5,1.1,3.1,1.1c0.3,0,0.6,0,0.9-0.1c1-0.3,1.9-0.4,2.7-0.4c1,0,1.6,0.3,1.9,0.5   c0.4,0.2,0.5,0.5,0.5,0.5c0.1,0.2,0.1,0.4,0,0.5C80.5,30.2,80.5,30.3,80.5,30.3L80.5,30.3z M77.7,29.4c1,0,1.7,0.2,2.1,0.4   c0.4,0.2,0.6,0.4,0.7,0.4c0-0.1,0.2-0.6,0-0.8c0,0-0.1-0.2-0.5-0.5c-0.3-0.2-0.9-0.5-1.9-0.5c-0.8,0-1.7,0.1-2.7,0.4   c-0.3,0.1-0.6,0.1-0.9,0.1c-1.5,0-3-1-3.1-1.1l-0.1,0.8c0.1,0.1,1.6,1.1,3.1,1.1c0.3,0,0.6,0,0.9-0.1C76.2,29.6,77,29.4,77.7,29.4z   "/></g><rect x="70.9" y="25.9" width="0.9" height="19.7"/><path fill="#FF9933" d="M27.3,43.9L27.3,43.9L25.2,43c0,0,0.2-0.2,0.2-0.5c0-0.3-0.3-0.5-0.7-0.5h-0.4l-1.5-1.1c0.2,0,0.4-0.2,0.4-0.5  s-0.2-0.5-0.4-0.5h-0.9c0.6-0.5,1.7-1.7-1-3.4c0.2-0.1,0.1-0.4-0.2-0.4h-0.4c0.3-0.2,0.4-1.4-0.4-2.8h-0.1c-0.9,1.4-0.7,2.6-0.4,2.8  H19c-0.3,0-0.4,0.3-0.2,0.4c-2.7,1.7-1.6,2.9-1,3.4H17c-0.2,0-0.4,0.2-0.4,0.5s0.2,0.5,0.4,0.5L15.5,42h-0.4c-0.4,0-0.7,0.2-0.7,0.5  c0,0.2,0.2,0.5,0.2,0.5l-2.2,0.9h0.1c-0.9,0-1.6,0.8-1.6,1.8s0.7,1.8,1.6,1.8h14.9c0.9,0,1.6-0.8,1.6-1.8S28.2,43.9,27.3,43.9z"/><path fill="#FF9933" d="M86.4,43.9L86.4,43.9L84.3,43c0,0,0.2-0.2,0.2-0.5c0-0.3-0.3-0.5-0.7-0.5h-0.4l-1.5-1.1c0.2,0,0.4-0.2,0.4-0.5  s-0.2-0.5-0.4-0.5H81c0.6-0.5,1.7-1.7-1-3.4c0.2-0.1,0.1-0.4-0.2-0.4h-0.4c0.3-0.2,0.4-1.4-0.4-2.8h-0.1c-0.9,1.4-0.7,2.6-0.4,2.8  h-0.4c-0.3,0-0.4,0.3-0.2,0.4c-2.7,1.7-1.6,2.9-1,3.4h-0.9c-0.2,0-0.4,0.2-0.4,0.5s0.2,0.5,0.4,0.5L74.6,42h-0.4  c-0.4,0-0.7,0.2-0.7,0.5c0,0.2,0.2,0.5,0.2,0.5l-2.2,0.9h0.1c-0.9,0-1.6,0.8-1.6,1.8s0.7,1.8,1.6,1.8h14.9c0.9,0,1.6-0.8,1.6-1.8  S87.3,43.9,86.4,43.9z"/><path fill="#FF9933" d="M58.9,31.4L58.9,31.4l-2.7-1.1c0,0,0.2-0.3,0.2-0.6c0-0.4-0.4-0.6-0.9-0.6h-0.6l-1.9-1.5c0.3,0,0.6-0.3,0.6-0.6  s-0.2-0.6-0.6-0.6h-1.1c0.8-0.6,2.3-2.2-1.3-4.4c0.2-0.1,0.1-0.5-0.3-0.5h-0.5c0.3-0.3,0.5-1.8-0.6-3.6h-0.1  c-1.1,1.8-0.9,3.4-0.6,3.6h-0.5c-0.4,0-0.5,0.3-0.3,0.5c-3.5,2.2-2.1,3.8-1.3,4.4h-1.1c-0.3,0-0.6,0.3-0.6,0.6s0.2,0.6,0.6,0.6  L43.6,29H43c-0.5,0-0.9,0.3-0.9,0.6c0,0.3,0.2,0.6,0.2,0.6l-2.8,1.1h0.1c-1.2,0-2.1,1-2.1,2.3s0.9,2.3,2.1,2.3h19.3  c1.2,0,2.1-1,2.1-2.3S60.1,31.4,58.9,31.4z"/><path fill="#FF9933" d="M67.4,74.7c-0.1-0.8-0.2-1.6-0.4-2.3c-0.1,0.6-0.2,1.1-0.3,1.7C67,74.3,67.2,74.5,67.4,74.7z"/><path fill="#FF9933" d="M32.1,73.9c0.3-0.3,0.6-0.5,0.9-0.8c-0.3-1.4-0.5-2.7-0.8-4c-0.3,1.8-0.6,3.7-0.9,5.6C31.6,74.4,31.9,74.2,32.1,73.9z"/><path fill="#FF9933" d="M66.6,73.9c0.1,0,0.1,0.1,0.2,0.1c0.1-0.6,0.2-1.1,0.3-1.7c-0.1-0.9-0.3-1.8-0.4-2.7c-0.3,1.2-0.5,2.4-0.7,3.6  C66.1,73.5,66.4,73.7,66.6,73.9z"/><g><path fill="#FF9933" d="M19.9,48.3h-6.2C8.9,61.6,6,74.1,4.5,89.6h15.4h5c0.1-5.5,2.3-10.8,6.3-14.9c0.3-2,0.6-3.8,0.9-5.6   c-1.5-7.1-3.5-13.8-6.1-20.8H19.9z M21.1,88.5H5.7c1.5-15.2,4.1-26,9-39h6.4V88.5z"/><path fill="#FF9933" d="M85.2,48.3h-6.2h-6.2c-2.7,7.2-4.7,14.1-6.2,21.4c0.2,0.9,0.3,1.8,0.4,2.7c1.5-7.8,3.7-14.9,6.7-22.9h6.4v39h-6.4l0,1h5.3   h15.4C93,74.1,90.1,61.6,85.2,48.3z"/><path fill="#FF9933" d="M49.4,36.8h-8c-4.4,11.7-7,20.2-9.1,32.3c0.3,1.3,0.6,2.7,0.8,4c0.1-0.1,0.3-0.2,0.4-0.3c1.9-11.9,4.7-21.9,9.2-34h6.7   v14.8c1.3,2.1,1,3.9,0.6,4.2h0.6c0.5,0,0.6,0.4,0.3,0.6c4.3,2.7,2.5,4.5,1.6,5.2h1.4c0.4,0,0.7,0.3,0.7,0.8s-0.3,0.8-0.7,0.8   l2.3,1.8h0.7c0.6,0,1.1,0.3,1.1,0.8c0,0.4-0.2,0.8-0.2,0.8h-0.6c3.3,1,6.3,2.6,8.8,4.8c0.2-1.2,0.5-2.4,0.7-3.6   c-2.3-13.4-5.2-22.8-9.2-32.9H49.4z"/><path fill="#FF9933" d="M49.2,53.5c-1.3,2.2-1.1,4-0.7,4.3H48c-0.5,0-0.6,0.4-0.3,0.6c-4.3,2.7-2.5,4.5-1.6,5.2h-1.4c-0.4,0-0.7,0.3-0.7,0.8   s0.3,0.8,0.7,0.8L42.5,67h-0.7c-0.6,0-1.1,0.3-1.1,0.8c0,0.4,0.2,0.8,0.2,0.8h0.8c2.4-0.7,5-1.2,7.7-1.2V53.6   C49.4,53.6,49.3,53.6,49.2,53.5L49.2,53.5z"/></g><path fill="#FF9933" d="M65.5,75.1c-4.3-4-10.1-6.1-16.2-6.1c-6.1,0-11.9,2.2-16.2,6.1c-4.2,3.9-6.6,9-6.7,14.4h45.7C72.1,84.1,69.8,79,65.5,75.1z"/></svg>